<?xml version="1.0" encoding="utf-8"?>
<!-- Generator: Adobe Illustrator 16.0.0, SVG Export Plug-In . SVG Version: 6.00 Build 0)  -->
<!DOCTYPE svg PUBLIC "-//W3C//DTD SVG 1.1//EN" "http://www.w3.org/Graphics/SVG/1.1/DTD/svg11.dtd">
<svg version="1.1" id="Layer_1" xmlns="http://www.w3.org/2000/svg" xmlns:xlink="http://www.w3.org/1999/xlink" x="0px" y="0px"
	 width="87px" height="20px" viewBox="0 0 87 20" enable-background="new 0 0 87 20" xml:space="preserve">
<path fill="#212121" d="M48,20H4c-2.2,0-4-1.8-4-4V4c0-2.2,1.8-4,4-4h44"/>
<g>
	<path fill="#FFFFFF" d="M8.245,13.215L5.946,7.51H7.53l1.074,2.911l0.312,0.972c0.083-0.247,0.134-0.41,0.156-0.489
		c0.05-0.161,0.104-0.322,0.161-0.483l1.085-2.911h1.552l-2.267,5.705H8.245z"/>
	<path fill="#FFFFFF" d="M16.097,11.398l1.504,0.253c-0.193,0.552-0.499,0.972-0.916,1.259c-0.417,0.289-0.939,0.434-1.565,0.434
		c-0.992,0-1.726-0.324-2.202-0.973c-0.376-0.52-0.564-1.174-0.564-1.966c0-0.945,0.247-1.686,0.741-2.221
		c0.494-0.535,1.119-0.803,1.875-0.803c0.849,0,1.518,0.28,2.009,0.841c0.491,0.56,0.725,1.418,0.704,2.575H13.9
		c0.011,0.448,0.132,0.796,0.365,1.044c0.233,0.249,0.523,0.373,0.87,0.373c0.236,0,0.435-0.064,0.596-0.193
		S16.015,11.686,16.097,11.398z M16.183,9.874c-0.011-0.437-0.124-0.769-0.338-0.996c-0.215-0.228-0.476-0.341-0.784-0.341
		c-0.33,0-0.602,0.12-0.816,0.36s-0.32,0.566-0.317,0.978H16.183z"/>
	<path fill="#FFFFFF" d="M20.356,13.215h-1.509V7.51h1.402v0.811c0.24-0.383,0.456-0.636,0.647-0.757
		c0.191-0.122,0.409-0.183,0.652-0.183c0.344,0,0.675,0.095,0.994,0.285l-0.467,1.316c-0.254-0.165-0.491-0.247-0.709-0.247
		c-0.211,0-0.39,0.058-0.537,0.175c-0.147,0.116-0.262,0.327-0.347,0.631c-0.084,0.304-0.126,0.942-0.126,1.913V13.215z"/>
	<path fill="#FFFFFF" d="M22.661,11.587l1.515-0.231c0.064,0.294,0.195,0.518,0.392,0.67c0.197,0.151,0.473,0.228,0.827,0.228
		c0.39,0,0.684-0.071,0.881-0.215c0.132-0.101,0.199-0.234,0.199-0.403c0-0.114-0.036-0.209-0.107-0.284
		c-0.075-0.071-0.244-0.138-0.505-0.198c-1.217-0.269-1.989-0.514-2.315-0.736c-0.451-0.308-0.677-0.736-0.677-1.284
		c0-0.494,0.195-0.91,0.585-1.246s0.996-0.505,1.815-0.505c0.781,0,1.361,0.127,1.741,0.381c0.379,0.254,0.641,0.63,0.783,1.128
		l-1.423,0.263c-0.061-0.222-0.176-0.392-0.346-0.51c-0.17-0.118-0.413-0.177-0.728-0.177c-0.397,0-0.682,0.056-0.854,0.167
		c-0.115,0.079-0.172,0.181-0.172,0.306c0,0.107,0.05,0.199,0.15,0.274c0.136,0.1,0.606,0.242,1.41,0.424
		c0.804,0.183,1.365,0.406,1.683,0.671c0.315,0.269,0.473,0.643,0.473,1.123c0,0.522-0.218,0.972-0.654,1.348
		c-0.438,0.376-1.083,0.564-1.939,0.564c-0.777,0-1.392-0.158-1.845-0.473C23.097,12.556,22.8,12.127,22.661,11.587z"/>
	<path fill="#FFFFFF" d="M30.438,9.25l-1.369-0.247c0.154-0.551,0.419-0.959,0.795-1.225s0.935-0.397,1.676-0.397
		c0.674,0,1.174,0.08,1.504,0.239c0.33,0.159,0.562,0.361,0.695,0.606c0.135,0.246,0.201,0.696,0.201,1.351l-0.016,1.762
		c0,0.502,0.024,0.871,0.072,1.109c0.049,0.238,0.139,0.493,0.271,0.766h-1.493c-0.04-0.101-0.088-0.25-0.146-0.446
		c-0.024-0.089-0.043-0.148-0.053-0.177c-0.258,0.25-0.534,0.438-0.828,0.563c-0.293,0.126-0.606,0.188-0.939,0.188
		c-0.588,0-1.05-0.16-1.389-0.479c-0.338-0.318-0.508-0.722-0.508-1.209c0-0.322,0.078-0.609,0.231-0.862
		c0.153-0.252,0.37-0.445,0.647-0.58c0.277-0.134,0.678-0.251,1.2-0.352c0.706-0.132,1.194-0.256,1.466-0.371v-0.15
		c0-0.29-0.071-0.497-0.215-0.621c-0.143-0.123-0.413-0.185-0.811-0.185c-0.269,0-0.479,0.053-0.629,0.159
		C30.652,8.8,30.531,8.985,30.438,9.25z M30.428,6.742H29.74c-0.004-0.083-0.006-0.147-0.006-0.193c0-0.376,0.092-0.665,0.273-0.868
		c0.184-0.202,0.418-0.303,0.704-0.303c0.126,0,0.241,0.013,0.349,0.041c0.107,0.026,0.304,0.104,0.589,0.23
		c0.284,0.127,0.507,0.191,0.669,0.191c0.114,0,0.21-0.036,0.287-0.107c0.076-0.072,0.126-0.191,0.147-0.36h0.698
		c-0.004,0.483-0.094,0.829-0.271,1.037c-0.177,0.208-0.405,0.312-0.685,0.312c-0.122,0-0.241-0.013-0.36-0.038
		c-0.082-0.021-0.287-0.095-0.617-0.22s-0.569-0.188-0.72-0.188c-0.114,0-0.204,0.035-0.269,0.104
		C30.465,6.45,30.431,6.57,30.428,6.742z M32.457,10.475c-0.193,0.064-0.499,0.142-0.918,0.231s-0.693,0.177-0.822,0.263
		c-0.196,0.14-0.295,0.317-0.295,0.532c0,0.212,0.078,0.394,0.236,0.548s0.357,0.23,0.602,0.23c0.271,0,0.531-0.089,0.779-0.268
		c0.182-0.137,0.303-0.303,0.359-0.5c0.039-0.129,0.059-0.374,0.059-0.736V10.475z"/>
	<path fill="#FFFFFF" d="M35.078,10.282c0-0.501,0.124-0.986,0.371-1.456s0.598-0.827,1.051-1.074
		c0.452-0.247,0.958-0.371,1.517-0.371c0.862,0,1.57,0.28,2.122,0.841c0.551,0.56,0.826,1.268,0.826,2.124
		c0,0.863-0.277,1.578-0.834,2.146c-0.558,0.567-1.258,0.852-2.104,0.852c-0.523,0-1.021-0.119-1.496-0.355
		s-0.835-0.582-1.082-1.039S35.078,10.937,35.078,10.282z M36.625,10.362c0,0.566,0.135,0.999,0.403,1.3s0.6,0.451,0.993,0.451
		c0.395,0,0.725-0.15,0.992-0.451c0.266-0.301,0.399-0.738,0.399-1.311c0-0.559-0.134-0.988-0.399-1.289
		c-0.268-0.301-0.598-0.451-0.992-0.451c-0.394,0-0.725,0.15-0.993,0.451S36.625,9.796,36.625,10.362z"/>
</g>
<path fill="#00B7D3" d="M48,0h35c2.2,0,4,1.8,4,4v12c0,2.2-1.8,4-4,4H48"/>
<g>
	<path fill="#FFFFFF" d="M60.059,13.215h-1.51V7.526C57.998,8.042,57.348,8.423,56.6,8.67v-1.37
		c0.395-0.129,0.822-0.374,1.283-0.733c0.463-0.36,0.779-0.78,0.951-1.26h1.225V13.215z"/>
	<path fill="#FFFFFF" d="M62.637,13.215v-1.51h1.51v1.51H62.637z"/>
	<path fill="#FFFFFF" d="M67.922,5.308c0.763,0,1.359,0.272,1.789,0.816c0.512,0.645,0.768,1.713,0.768,3.207
		c0,1.49-0.258,2.56-0.773,3.212c-0.426,0.537-1.021,0.806-1.783,0.806c-0.766,0-1.384-0.294-1.854-0.884
		c-0.469-0.589-0.703-1.639-0.703-3.15c0-1.482,0.258-2.549,0.773-3.201C66.564,5.577,67.159,5.308,67.922,5.308z M67.922,6.56
		c-0.183,0-0.346,0.058-0.488,0.174C67.29,6.851,67.179,7.059,67.1,7.36c-0.104,0.39-0.155,1.047-0.155,1.971
		s0.046,1.559,0.14,1.903c0.094,0.346,0.211,0.576,0.352,0.691c0.142,0.114,0.304,0.172,0.486,0.172s0.346-0.059,0.488-0.176
		c0.144-0.115,0.255-0.324,0.334-0.625c0.104-0.387,0.155-1.042,0.155-1.966s-0.046-1.559-0.14-1.904
		c-0.094-0.346-0.211-0.577-0.352-0.693C68.267,6.618,68.104,6.56,67.922,6.56z"/>
	<path fill="#FFFFFF" d="M71.811,13.215v-1.51h1.51v1.51H71.811z"/>
	<path fill="#FFFFFF" d="M77.096,5.308c0.763,0,1.359,0.272,1.789,0.816c0.512,0.645,0.768,1.713,0.768,3.207
		c0,1.49-0.258,2.56-0.773,3.212c-0.426,0.537-1.021,0.806-1.783,0.806c-0.766,0-1.384-0.294-1.854-0.884
		c-0.469-0.589-0.703-1.639-0.703-3.15c0-1.482,0.258-2.549,0.773-3.201C75.738,5.577,76.333,5.308,77.096,5.308z M77.096,6.56
		c-0.183,0-0.346,0.058-0.488,0.174c-0.144,0.117-0.255,0.325-0.334,0.626c-0.104,0.39-0.155,1.047-0.155,1.971
		s0.046,1.559,0.14,1.903c0.094,0.346,0.211,0.576,0.352,0.691c0.142,0.114,0.304,0.172,0.486,0.172s0.346-0.059,0.488-0.176
		c0.144-0.115,0.255-0.324,0.334-0.625c0.104-0.387,0.155-1.042,0.155-1.966s-0.046-1.559-0.14-1.904
		c-0.094-0.346-0.211-0.577-0.352-0.693C77.44,6.618,77.278,6.56,77.096,6.56z"/>
</g>
<text transform="matrix(1 0 0 1 5.8867 33.2148)" fill="#FFFFFF" font-family="'Arial-BoldMT'" font-size="11">versão</text>
<text transform="matrix(1 0 0 1 55.7295 33.2148)" fill="#FFFFFF" font-family="'Arial-BoldMT'" font-size="11">1.0.0</text>
</svg>
