<?xml version="1.0" encoding="utf-8"?>
<!-- Generator: Adobe Illustrator 16.0.0, SVG Export Plug-In . SVG Version: 6.00 Build 0)  -->
<!DOCTYPE svg PUBLIC "-//W3C//DTD SVG 1.1//EN" "http://www.w3.org/Graphics/SVG/1.1/DTD/svg11.dtd">
<svg version="1.1" id="Layer_1" xmlns="http://www.w3.org/2000/svg" xmlns:xlink="http://www.w3.org/1999/xlink" x="0px" y="0px"
	 width="800px" height="600px" viewBox="0 0 800 600" enable-background="new 0 0 800 600" xml:space="preserve">
<path fill="#212121" d="M422,310h-44c-2.2,0-4-1.8-4-4v-12c0-2.2,1.8-4,4-4h44"/>
<g>
	<g>
		<text transform="matrix(1 0 0 1 384.0869 303.4141)" font-family="'Roboto-Light'" font-size="11">versão</text>
	</g>
	<g>
		<text transform="matrix(1 0 0 1 383.8867 303.2148)" fill="#FFFFFF" font-family="'Roboto-Light'" font-size="11">versão</text>
	</g>
</g>
<path fill="#00B7D3" d="M422,290h35c2.2,0,4,1.8,4,4v12c0,2.2-1.8,4-4,4h-35"/>
<g>
	<g>
		<text transform="matrix(1 0 0 1 427.9297 303.4141)" font-family="'Roboto-Light'" font-size="11">1.0.0</text>
	</g>
	<g>
		<text transform="matrix(1 0 0 1 427.7295 303.2148)" fill="#FFFFFF" font-family="'Roboto-Light'" font-size="11">1.0.0</text>
	</g>
</g>
</svg>
