<?xml version="1.0" encoding="utf-8"?>
<!-- Generator: Adobe Illustrator 16.0.0, SVG Export Plug-In . SVG Version: 6.00 Build 0)  -->
<!DOCTYPE svg PUBLIC "-//W3C//DTD SVG 1.1//EN" "http://www.w3.org/Graphics/SVG/1.1/DTD/svg11.dtd">
<svg version="1.1" id="Layer_1" xmlns="http://www.w3.org/2000/svg" xmlns:xlink="http://www.w3.org/1999/xlink" x="0px" y="0px"
	 width="87px" height="20px" viewBox="0 0 87 20" enable-background="new 0 0 87 20" xml:space="preserve">
<path fill="#212121" d="M48,20H4c-2.2,0-4-1.8-4-4V4c0-2.2,1.8-4,4-4h44"/>
<g>
	<g>
		<text transform="matrix(1 0 0 1 8.0869 13.4141)" font-family="'ArialUnicodeMS'" font-size="11">versão</text>
	</g>
	<g>
		<text transform="matrix(1 0 0 1 7.8867 13.2148)" fill="#FFFFFF" font-family="'ArialUnicodeMS'" font-size="11">versão</text>
	</g>
</g>
<path fill="#00B7D3" d="M48,0h35c2.2,0,4,1.8,4,4v12c0,2.2-1.8,4-4,4H48"/>
<g>
	<g>
		<text transform="matrix(1 0 0 1 54.9297 13.4141)" font-family="'ArialUnicodeMS'" font-size="11">1.0.0</text>
	</g>
	<g>
		<text transform="matrix(1 0 0 1 54.7295 13.2148)" fill="#FFFFFF" font-family="'ArialUnicodeMS'" font-size="11">1.0.0</text>
	</g>
</g>
</svg>
