<svg xmlns="http://www.w3.org/2000/svg" width="226" height="226" viewBox="0 0 226 226"><path d="M113 226C50.692 226 0 175.308 0 113S50.692 0 113 0s113 50.692 113 113-50.692 113-113 113zm0-220C54 6 6 54 6 113s48 107 107 107 107-48 107-107S172 6 113 6z"/><path d="M87.833 119.75v-.64c0-13.44 10-21.921 22.96-21.921 12.88 0 22.801 8.24 22.801 21.521v.64c0 13.601-10.001 21.761-22.881 21.761-12.879-.001-22.88-7.841-22.88-21.361zm31.202-.241v-.64c0-7.04-2.801-10.96-8.241-10.96-5.36 0-8.32 3.76-8.32 10.8v.64c0 7.2 2.8 11.12 8.32 11.12 5.36 0 8.241-4 8.241-10.96zM151.673 133.669v6.48h-14.32v-60.24h14.32v24.641c2.4-4.001 6.721-7.36 13.041-7.36 9.76 0 17.68 7.36 17.68 21.681v.64c0 14.4-7.92 21.601-17.76 21.601-6.24-.002-10.881-2.962-12.961-7.443zm16.16-14.16v-.64c0-7.36-3.199-10.88-8.24-10.88-5.199 0-8.319 3.76-8.319 10.8v.64c0 7.12 3.12 10.721 8.319 10.721 5.362 0 8.24-3.761 8.24-10.641zM183.912 126.87h13.201c.479 3.04 1.84 4.72 5.92 4.72 3.52 0 5.12-1.359 5.12-3.439 0-2-2-2.96-7.761-3.761-11.199-1.439-15.92-4.72-15.92-13.44 0-9.279 8.24-13.76 17.92-13.76 10.32 0 17.521 3.52 18.48 13.521h-12.96c-.56-2.8-2.08-4.16-5.36-4.16-3.119 0-4.72 1.36-4.72 3.28 0 2 1.92 2.8 7.04 3.439 11.601 1.44 17.201 4.48 17.201 13.44 0 9.92-7.361 14.4-18.961 14.4-11.919 0-18.88-4.96-19.2-14.24z"/></svg>